<svg width="221" height="248" viewBox="0 0 221 248" fill="white" xmlns="http://www.w3.org/2000/svg">
<rect x="7.77817" y="111.686" width="145.77" height="144.622" rx="36.5" transform="rotate(-45 7.77817 111.686)" stroke="#222020" stroke-width="11"/>
<path d="M25.6074 225.693V226.73C25.6074 228.688 25.332 230.445 24.7812 232.004C24.2422 233.551 23.4746 234.875 22.4785 235.977C21.4824 237.066 20.3047 237.904 18.9453 238.49C17.5859 239.064 16.0859 239.352 14.4453 239.352C12.793 239.352 11.2812 239.064 9.91016 238.49C8.55078 237.904 7.36719 237.066 6.35938 235.977C5.36328 234.875 4.58984 233.551 4.03906 232.004C3.5 230.445 3.23047 228.688 3.23047 226.73V225.693C3.23047 223.736 3.5 221.979 4.03906 220.42C4.58984 218.861 5.35742 217.537 6.3418 216.447C7.33789 215.346 8.51562 214.508 9.875 213.934C11.2461 213.348 12.7578 213.055 14.4102 213.055C16.0508 213.055 17.5508 213.348 18.9102 213.934C20.2812 214.508 21.4648 215.346 22.4609 216.447C23.457 217.537 24.2305 218.861 24.7812 220.42C25.332 221.979 25.6074 223.736 25.6074 225.693ZM19.3496 226.73V225.658C19.3496 224.393 19.2383 223.279 19.0156 222.318C18.8047 221.346 18.4883 220.531 18.0664 219.875C17.6445 219.219 17.123 218.727 16.502 218.398C15.8926 218.059 15.1953 217.889 14.4102 217.889C13.5898 217.889 12.875 218.059 12.2656 218.398C11.6562 218.727 11.1465 219.219 10.7363 219.875C10.3262 220.531 10.0156 221.346 9.80469 222.318C9.60547 223.279 9.50586 224.393 9.50586 225.658V226.73C9.50586 227.984 9.60547 229.098 9.80469 230.07C10.0156 231.031 10.3262 231.846 10.7363 232.514C11.1582 233.182 11.6738 233.686 12.2832 234.025C12.9043 234.365 13.625 234.535 14.4453 234.535C15.2305 234.535 15.9277 234.365 16.5371 234.025C17.1465 233.686 17.6562 233.182 18.0664 232.514C18.4883 231.846 18.8047 231.031 19.0156 230.07C19.2383 229.098 19.3496 227.984 19.3496 226.73ZM34.502 224.691V239H28.5781V219.98H34.1152L34.502 224.691ZM40.127 219.84L40.0215 225.342C39.7871 225.318 39.4707 225.289 39.0723 225.254C38.6738 225.219 38.3398 225.201 38.0703 225.201C37.3789 225.201 36.7812 225.283 36.2773 225.447C35.7852 225.6 35.375 225.834 35.0469 226.15C34.7305 226.455 34.4961 226.842 34.3438 227.311C34.2031 227.779 34.1387 228.324 34.1504 228.945L33.0781 228.242C33.0781 226.965 33.2012 225.805 33.4473 224.762C33.7051 223.707 34.0684 222.799 34.5371 222.037C35.0059 221.264 35.5742 220.672 36.2422 220.262C36.9102 219.84 37.6602 219.629 38.4922 219.629C38.7852 219.629 39.0723 219.646 39.3535 219.682C39.6465 219.717 39.9043 219.77 40.127 219.84ZM53.7676 219.98H59.1465V238.262C59.1465 240.02 58.7422 241.508 57.9336 242.727C57.125 243.957 55.9941 244.889 54.541 245.521C53.0996 246.166 51.4121 246.488 49.4785 246.488C48.623 246.488 47.75 246.377 46.8594 246.154C45.9688 245.943 45.1367 245.627 44.3633 245.205C43.5898 244.783 42.9395 244.262 42.4121 243.641L44.8906 240.16C45.3711 240.699 45.9746 241.156 46.7012 241.531C47.4277 241.918 48.2832 242.111 49.2676 242.111C50.123 242.111 50.8379 241.959 51.4121 241.654C51.998 241.35 52.4434 240.904 52.748 240.318C53.0527 239.744 53.2051 239.047 53.2051 238.227V224.48L53.7676 219.98ZM41.1289 229.719V229.35C41.1289 227.908 41.3047 226.596 41.6562 225.412C42.0195 224.217 42.5352 223.191 43.2031 222.336C43.8828 221.469 44.7031 220.801 45.6641 220.332C46.625 219.863 47.709 219.629 48.916 219.629C50.2168 219.629 51.2832 219.881 52.1152 220.385C52.959 220.877 53.6328 221.568 54.1367 222.459C54.6523 223.35 55.0508 224.393 55.332 225.588C55.625 226.771 55.8711 228.049 56.0703 229.42V229.859C55.8711 231.148 55.5957 232.367 55.2441 233.516C54.9043 234.652 54.459 235.66 53.9082 236.539C53.3574 237.418 52.666 238.109 51.834 238.613C51.0137 239.105 50.0293 239.352 48.8809 239.352C47.6855 239.352 46.6074 239.111 45.6465 238.631C44.6973 238.15 43.8828 237.477 43.2031 236.609C42.5352 235.742 42.0195 234.723 41.6562 233.551C41.3047 232.379 41.1289 231.102 41.1289 229.719ZM47.0527 229.35V229.719C47.0527 230.434 47.1172 231.096 47.2461 231.705C47.3867 232.314 47.5977 232.854 47.8789 233.322C48.1602 233.779 48.5059 234.137 48.916 234.395C49.3379 234.652 49.8301 234.781 50.3926 234.781C51.248 234.781 51.9395 234.6 52.4668 234.236C52.9941 233.873 53.375 233.357 53.6094 232.689C53.8438 232.021 53.9434 231.236 53.9082 230.334V228.945C53.9316 228.172 53.8789 227.492 53.75 226.906C53.6211 226.309 53.416 225.811 53.1348 225.412C52.8652 225.014 52.502 224.715 52.0449 224.516C51.5996 224.305 51.0605 224.199 50.4277 224.199C49.877 224.199 49.3906 224.328 48.9688 224.586C48.5469 224.844 48.1953 225.207 47.9141 225.676C47.6328 226.133 47.416 226.678 47.2637 227.311C47.123 227.932 47.0527 228.611 47.0527 229.35ZM72.4355 234.219V226.379C72.4355 225.84 72.3594 225.377 72.207 224.99C72.0547 224.604 71.8145 224.305 71.4863 224.094C71.1582 223.871 70.7188 223.76 70.168 223.76C69.7227 223.76 69.3418 223.836 69.0254 223.988C68.709 224.141 68.4688 224.369 68.3047 224.674C68.1406 224.979 68.0586 225.365 68.0586 225.834H62.1348C62.1348 224.955 62.3281 224.141 62.7148 223.391C63.1133 222.629 63.6758 221.967 64.4023 221.404C65.1406 220.842 66.0195 220.408 67.0391 220.104C68.0703 219.787 69.2188 219.629 70.4844 219.629C71.9961 219.629 73.3438 219.881 74.5273 220.385C75.7227 220.889 76.666 221.645 77.3574 222.652C78.0488 223.648 78.3945 224.902 78.3945 226.414V234.201C78.3945 235.443 78.4648 236.387 78.6055 237.031C78.7461 237.664 78.9453 238.221 79.2031 238.701V239H73.2617C72.9805 238.414 72.7695 237.699 72.6289 236.855C72.5 236 72.4355 235.121 72.4355 234.219ZM73.1562 227.381L73.1914 230.545H70.5723C70.0215 230.545 69.5527 230.621 69.166 230.773C68.791 230.926 68.4863 231.137 68.252 231.406C68.0293 231.664 67.8652 231.957 67.7598 232.285C67.666 232.613 67.6191 232.959 67.6191 233.322C67.6191 233.674 67.7012 233.99 67.8652 234.271C68.041 234.541 68.2754 234.752 68.5684 234.904C68.8613 235.057 69.1895 235.133 69.5527 235.133C70.209 235.133 70.7656 235.01 71.2227 234.764C71.6914 234.506 72.0488 234.195 72.2949 233.832C72.541 233.469 72.6641 233.129 72.6641 232.812L73.9648 235.238C73.7305 235.707 73.4609 236.182 73.1562 236.662C72.8633 237.143 72.4941 237.588 72.0488 237.998C71.6152 238.396 71.082 238.725 70.4492 238.982C69.8164 239.229 69.0488 239.352 68.1465 239.352C66.9746 239.352 65.8965 239.111 64.9121 238.631C63.9395 238.15 63.1602 237.482 62.5742 236.627C61.9883 235.76 61.6953 234.764 61.6953 233.639C61.6953 232.654 61.8711 231.775 62.2227 231.002C62.5859 230.229 63.1309 229.572 63.8574 229.033C64.584 228.494 65.5098 228.084 66.6348 227.803C67.7598 227.521 69.084 227.381 70.6074 227.381H73.1562ZM87.5 224.041V239H81.5762V219.98H87.1309L87.5 224.041ZM86.7969 228.84L85.4082 228.875C85.4082 227.422 85.584 226.127 85.9355 224.99C86.2871 223.842 86.7852 222.869 87.4297 222.072C88.0742 221.275 88.8418 220.672 89.7324 220.262C90.6348 219.84 91.6367 219.629 92.7383 219.629C93.6172 219.629 94.4199 219.758 95.1465 220.016C95.8848 220.273 96.5176 220.689 97.0449 221.264C97.584 221.838 97.9941 222.6 98.2754 223.549C98.5684 224.486 98.7148 225.646 98.7148 227.029V239H92.7559V227.012C92.7559 226.25 92.6504 225.67 92.4395 225.271C92.2285 224.861 91.9238 224.58 91.5254 224.428C91.127 224.275 90.6406 224.199 90.0664 224.199C89.457 224.199 88.9414 224.316 88.5195 224.551C88.0977 224.785 87.7578 225.113 87.5 225.535C87.2539 225.945 87.0723 226.432 86.9551 226.994C86.8496 227.557 86.7969 228.172 86.7969 228.84ZM108.26 219.98V239H102.318V219.98H108.26ZM101.967 215.076C101.967 214.232 102.271 213.541 102.881 213.002C103.49 212.463 104.281 212.193 105.254 212.193C106.227 212.193 107.018 212.463 107.627 213.002C108.236 213.541 108.541 214.232 108.541 215.076C108.541 215.92 108.236 216.611 107.627 217.15C107.018 217.689 106.227 217.959 105.254 217.959C104.281 217.959 103.49 217.689 102.881 217.15C102.271 216.611 101.967 215.92 101.967 215.076ZM127.561 234.43V239H112.83V234.43H127.561ZM127.385 223.18L115.484 239H111.424V235.695L123.307 219.98H127.385V223.18ZM125.434 219.98V224.551H111.775V219.98H125.434ZM139.408 239.352C137.861 239.352 136.479 239.111 135.26 238.631C134.041 238.139 133.01 237.465 132.166 236.609C131.334 235.754 130.695 234.77 130.25 233.656C129.816 232.543 129.6 231.365 129.6 230.123V229.455C129.6 228.061 129.793 226.771 130.18 225.588C130.566 224.393 131.141 223.35 131.902 222.459C132.664 221.568 133.619 220.877 134.768 220.385C135.916 219.881 137.252 219.629 138.775 219.629C140.123 219.629 141.33 219.846 142.396 220.279C143.463 220.713 144.365 221.334 145.104 222.143C145.854 222.951 146.422 223.93 146.809 225.078C147.207 226.227 147.406 227.516 147.406 228.945V231.354H131.867V227.645H141.623V227.188C141.635 226.555 141.523 226.016 141.289 225.57C141.066 225.125 140.738 224.785 140.305 224.551C139.871 224.316 139.344 224.199 138.723 224.199C138.078 224.199 137.545 224.34 137.123 224.621C136.713 224.902 136.391 225.289 136.156 225.781C135.934 226.262 135.775 226.818 135.682 227.451C135.588 228.084 135.541 228.752 135.541 229.455V230.123C135.541 230.826 135.635 231.465 135.822 232.039C136.021 232.613 136.303 233.105 136.666 233.516C137.041 233.914 137.486 234.225 138.002 234.447C138.529 234.67 139.127 234.781 139.795 234.781C140.604 234.781 141.4 234.629 142.186 234.324C142.971 234.02 143.645 233.516 144.207 232.812L146.896 236.012C146.51 236.562 145.959 237.096 145.244 237.611C144.541 238.127 143.697 238.549 142.713 238.877C141.729 239.193 140.627 239.352 139.408 239.352ZM155.791 224.691V239H149.867V219.98H155.404L155.791 224.691ZM161.416 219.84L161.311 225.342C161.076 225.318 160.76 225.289 160.361 225.254C159.963 225.219 159.629 225.201 159.359 225.201C158.668 225.201 158.07 225.283 157.566 225.447C157.074 225.6 156.664 225.834 156.336 226.15C156.02 226.455 155.785 226.842 155.633 227.311C155.492 227.779 155.428 228.324 155.439 228.945L154.367 228.242C154.367 226.965 154.49 225.805 154.736 224.762C154.994 223.707 155.357 222.799 155.826 222.037C156.295 221.264 156.863 220.672 157.531 220.262C158.199 219.84 158.949 219.629 159.781 219.629C160.074 219.629 160.361 219.646 160.643 219.682C160.936 219.717 161.193 219.77 161.416 219.84ZM173.949 230.316H167.586V225.553H173.949C174.816 225.553 175.52 225.406 176.059 225.113C176.598 224.82 176.99 224.416 177.236 223.9C177.494 223.373 177.623 222.781 177.623 222.125C177.623 221.422 177.494 220.771 177.236 220.174C176.99 219.576 176.598 219.096 176.059 218.732C175.52 218.357 174.816 218.17 173.949 218.17H169.906V239H163.736V213.406H173.949C176 213.406 177.764 213.781 179.24 214.531C180.729 215.281 181.871 216.312 182.668 217.625C183.465 218.926 183.863 220.414 183.863 222.09C183.863 223.742 183.465 225.184 182.668 226.414C181.871 227.645 180.729 228.605 179.24 229.297C177.764 229.977 176 230.316 173.949 230.316ZM192.881 224.691V239H186.957V219.98H192.494L192.881 224.691ZM198.506 219.84L198.4 225.342C198.166 225.318 197.85 225.289 197.451 225.254C197.053 225.219 196.719 225.201 196.449 225.201C195.758 225.201 195.16 225.283 194.656 225.447C194.164 225.6 193.754 225.834 193.426 226.15C193.109 226.455 192.875 226.842 192.723 227.311C192.582 227.779 192.518 228.324 192.529 228.945L191.457 228.242C191.457 226.965 191.58 225.805 191.826 224.762C192.084 223.707 192.447 222.799 192.916 222.037C193.385 221.264 193.953 220.672 194.621 220.262C195.289 219.84 196.039 219.629 196.871 219.629C197.164 219.629 197.451 219.646 197.732 219.682C198.025 219.717 198.283 219.77 198.506 219.84ZM199.174 229.684V229.314C199.174 227.92 199.373 226.637 199.771 225.465C200.17 224.281 200.756 223.256 201.529 222.389C202.303 221.521 203.258 220.848 204.395 220.367C205.531 219.875 206.844 219.629 208.332 219.629C209.832 219.629 211.15 219.875 212.287 220.367C213.436 220.848 214.396 221.521 215.17 222.389C215.943 223.256 216.529 224.281 216.928 225.465C217.326 226.637 217.525 227.92 217.525 229.314V229.684C217.525 231.066 217.326 232.35 216.928 233.533C216.529 234.705 215.943 235.73 215.17 236.609C214.396 237.477 213.441 238.15 212.305 238.631C211.168 239.111 209.855 239.352 208.367 239.352C206.879 239.352 205.561 239.111 204.412 238.631C203.264 238.15 202.303 237.477 201.529 236.609C200.756 235.73 200.17 234.705 199.771 233.533C199.373 232.35 199.174 231.066 199.174 229.684ZM205.098 229.314V229.684C205.098 230.398 205.15 231.066 205.256 231.688C205.361 232.309 205.537 232.854 205.783 233.322C206.029 233.779 206.363 234.137 206.785 234.395C207.207 234.652 207.734 234.781 208.367 234.781C208.988 234.781 209.504 234.652 209.914 234.395C210.336 234.137 210.67 233.779 210.916 233.322C211.162 232.854 211.338 232.309 211.443 231.688C211.549 231.066 211.602 230.398 211.602 229.684V229.314C211.602 228.623 211.549 227.973 211.443 227.363C211.338 226.742 211.162 226.197 210.916 225.729C210.67 225.248 210.336 224.873 209.914 224.604C209.492 224.334 208.965 224.199 208.332 224.199C207.711 224.199 207.189 224.334 206.768 224.604C206.357 224.873 206.029 225.248 205.783 225.729C205.537 226.197 205.361 226.742 205.256 227.363C205.15 227.973 205.098 228.623 205.098 229.314Z" fill="#222020"/>
<path d="M46.0107 144.964C43.7814 146.062 42.8647 148.76 43.9632 150.99C45.0618 153.219 47.7595 154.136 49.9888 153.037L80.5663 137.97L106.022 186.104L110.232 194.065L114.071 185.918L136.69 137.91L170.662 153.108C172.931 154.123 175.593 153.107 176.608 150.838C177.623 148.57 176.606 145.908 174.338 144.893L140.527 129.766L144.446 121.449L132.383 128.029C132.356 128.043 132.328 128.058 132.301 128.073L112.205 139.036L84.1901 127.829C84.1785 127.825 84.1668 127.82 84.1551 127.815L72.7928 123.27L76.3572 130.01L46.0107 144.964Z" stroke="#222020" stroke-width="9" stroke-linecap="round"/>
<path d="M104.048 123.438C103.185 124.516 103.36 126.09 104.438 126.952C105.516 127.815 107.09 127.64 107.952 126.562L104.048 123.438ZM107.876 121L105.504 120.211L107.876 121ZM107.506 108.834C107.16 114.023 106.318 117.764 105.504 120.211L110.248 121.789C111.213 118.89 112.124 114.724 112.494 109.166L107.506 108.834ZM105.504 120.211C104.844 122.196 104.249 123.186 104.048 123.438L107.952 126.562C108.69 125.64 109.51 124.009 110.248 121.789L105.504 120.211Z" fill="#222020"/>
<path d="M120.71 70.7378C119.15 69.6469 117.476 68.4756 115.562 67.2522C115.549 67.2441 115.537 67.2362 115.524 67.2283L113.921 69.764C113.818 69.6929 113.759 69.5658 113.751 69.5106C113.75 69.5085 113.756 69.5498 113.741 69.6482C113.727 69.7457 113.695 69.88 113.634 70.0545C113.376 70.7933 112.748 71.8598 111.731 73.1982C109.724 75.8382 106.513 79.1373 102.922 82.3347C99.337 85.5267 95.4374 88.56 92.0838 90.6843C90.4033 91.7488 88.9008 92.5589 87.6696 93.0512C86.3547 93.577 85.6427 93.618 85.3817 93.5494C84.4301 93.299 83.7125 93.1044 83.1784 92.9544C81.7036 91.2594 81.6424 90.7561 81.6148 90.3106C81.6057 90.1645 81.6079 89.9795 81.6106 89.753C81.62 88.9572 81.6355 87.6494 81.1904 85.7197C80.173 81.3098 80.2814 76.7309 81.5067 72.3689C82.732 68.0067 85.0398 63.985 88.2407 60.6469C91.4418 57.3085 95.442 54.7523 99.9051 53.2004C104.368 51.6485 109.159 51.1482 113.87 51.7435C118.581 52.3387 123.068 54.0112 126.952 56.6148C130.836 59.2183 134 62.6745 136.181 66.6862C138.113 70.2372 139.225 74.1328 139.455 78.112C130.621 77.6709 126.44 74.7466 120.71 70.7378Z" fill="#222020" stroke="white" stroke-width="3"/>
<circle cx="110" cy="81" r="25.5" stroke="#222020" stroke-width="9"/>
</svg>
